<?xml version="1.0" encoding="utf-8"?>
<!-- Generator: Adobe Illustrator 18.0.0, SVG Export Plug-In . SVG Version: 6.00 Build 0)  -->
<!DOCTYPE svg PUBLIC "-//W3C//DTD SVG 1.1//EN" "http://www.w3.org/Graphics/SVG/1.1/DTD/svg11.dtd">
<svg version="1.1" id="Layer_1" xmlns="http://www.w3.org/2000/svg" xmlns:xlink="http://www.w3.org/1999/xlink" x="0px" y="0px"
	 viewBox="0 0 60 60" enable-background="new 0 0 60 60" xml:space="preserve">
<g>
	<path fill="#808080" d="M51.5,10.3c-0.4-0.3-1-0.3-1.5-0.2l-20.8,6.7l-0.7,0.1c-0.6,0.2-1.3,0.7-1.3,1.3c0-0.6,0.7-1.1,1.3-1.3
		l0.5-0.1L8.4,10.1C8,10,8,10,7.7,10.3c-0.4,0.3-0.1,0.7-0.1,1.1v30.3c0,0.6-0.1,1.1,0.5,1.3L28,49.6c0,0,0.1,0.1,0.1,0.1
		c0.2,0.2,0.6,0.2,0.9,0.3c0,0,0.1,0,0.2,0l0,0c0,0,0,0,0,0c0,0,0,0,0,0c0.1,0,0.3,0,0.4-0.1l21.4-6.8c0.6-0.2,1.4-0.7,1.4-1.3V11.4
		C52.5,11,51.9,10.6,51.5,10.3z M10.4,13.4l16.8,5.9v27.4l-16.8-5.9V13.4z M49.7,40.8l-19.6,5.9V19.2l19.6-5.9V40.8z"/>
	<path fill="#808080" d="M33.2,23.2c0.1,0,0.2,0,0.3,0l13.1-4.2c0.5-0.2,0.8-0.7,0.6-1.2C47,17.3,46.5,17,46,17.2l-13.1,4.2
		c-0.5,0.2-0.8,0.7-0.6,1.2C32.5,23,32.8,23.2,33.2,23.2z"/>
	<path fill="#808080" d="M33.2,27.2c0.1,0,0.2,0,0.3,0L46.6,23c0.5-0.2,0.8-0.7,0.6-1.2C47,21.3,46.5,21,46,21.2l-13.1,4.2
		c-0.5,0.2-0.8,0.7-0.6,1.2C32.5,27,32.8,27.2,33.2,27.2z"/>
	<path fill="#808080" d="M33.2,31.3c0.1,0,0.2,0,0.3,0L46.6,27c0.5-0.2,0.8-0.7,0.6-1.2C47,25.3,46.5,25,46,25.2l-13.1,4.2
		c-0.5,0.2-0.8,0.7-0.6,1.2C32.5,31,32.8,31.3,33.2,31.3z"/>
	<path fill="#808080" d="M33.2,35.3c0.1,0,0.2,0,0.3,0L46.6,31c0.5-0.2,0.8-0.7,0.6-1.2c-0.2-0.5-0.7-0.8-1.2-0.6l-13.1,4.2
		c-0.5,0.2-0.8,0.7-0.6,1.2C32.5,35,32.8,35.3,33.2,35.3z"/>
	<path fill="#808080" d="M33.2,39.3c0.1,0,0.2,0,0.3,0L46.6,35c0.5-0.2,0.8-0.7,0.6-1.2c-0.2-0.5-0.7-0.8-1.2-0.6l-13.1,4.2
		c-0.5,0.2-0.8,0.7-0.6,1.2C32.5,39,32.8,39.3,33.2,39.3z"/>
	<path fill="#808080" d="M33.2,43.3c0.1,0,0.2,0,0.3,0L46.6,39c0.5-0.2,0.8-0.7,0.6-1.2c-0.2-0.5-0.7-0.8-1.2-0.6l-13.1,4.2
		c-0.5,0.2-0.8,0.7-0.6,1.2C32.5,43.1,32.8,43.3,33.2,43.3z"/>
</g>
</svg>
