<?xml version="1.0" encoding="utf-8"?>
<!-- Generator: Adobe Illustrator 18.0.0, SVG Export Plug-In . SVG Version: 6.00 Build 0)  -->
<!DOCTYPE svg PUBLIC "-//W3C//DTD SVG 1.1//EN" "http://www.w3.org/Graphics/SVG/1.1/DTD/svg11.dtd">
<svg version="1.1" id="Layer_1" xmlns="http://www.w3.org/2000/svg" xmlns:xlink="http://www.w3.org/1999/xlink" x="0px" y="0px"
	 viewBox="0 0 60 60" enable-background="new 0 0 60 60" xml:space="preserve">
<g>
	<path fill="#808080" d="M18.6,22c0.7-0.4,0.9-1.3,0.5-1.9c-0.4-0.7-1.3-0.9-1.9-0.5L1.7,28.8C1.3,29,1,29.5,1,30s0.3,1,0.7,1.2
		l15.4,9.2c0.2,0.1,0.5,0.2,0.7,0.2c0.5,0,0.9-0.2,1.2-0.7c0.4-0.7,0.2-1.5-0.5-1.9l-0.7-0.4L5.2,30l12.7-7.5L18.6,22z"/>
	<path fill="#808080" d="M58.3,28.8l-15.4-9.2c-0.7-0.4-1.5-0.2-1.9,0.5c-0.4,0.7-0.2,1.5,0.5,1.9l0.7,0.4L54.8,30l-12.7,7.5
		l-0.7,0.4c-0.7,0.4-0.9,1.3-0.5,1.9c0.3,0.4,0.7,0.7,1.2,0.7c0.2,0,0.5-0.1,0.7-0.2l15.4-9.2c0.4-0.3,0.7-0.7,0.7-1.2
		S58.7,29,58.3,28.8z"/>
	<path fill="#808080" d="M38.8,14.6c-0.7-0.4-1.5-0.2-1.9,0.5L20.5,43.5c-0.4,0.7-0.2,1.5,0.5,1.9c0.2,0.1,0.5,0.2,0.7,0.2
		c0.5,0,1-0.3,1.2-0.7l16.5-28.3C39.7,15.9,39.5,15,38.8,14.6z"/>
</g>
</svg>
